<svg width="24" height="24" viewBox="0 0 24 24" fill="none" xmlns="http://www.w3.org/2000/svg">
<path d="M2.4 22.8C2.4 22.1373 1.86274 21.6 1.2 21.6C0.537258 21.6 0 22.1373 0 22.8C0 23.4627 0.537258 24 1.2 24C1.86274 24 2.4 23.4627 2.4 22.8Z" fill="#EDEDED"/>
<path d="M2.4 17.4C2.4 16.7373 1.86274 16.2 1.2 16.2C0.537258 16.2 0 16.7373 0 17.4C0 18.0627 0.537258 18.6 1.2 18.6C1.86274 18.6 2.4 18.0627 2.4 17.4Z" fill="#EDEDED"/>
<path d="M7.8 17.4C7.8 16.7373 7.26274 16.2 6.6 16.2C5.93726 16.2 5.4 16.7373 5.4 17.4C5.4 18.0627 5.93726 18.6 6.6 18.6C7.26274 18.6 7.8 18.0627 7.8 17.4Z" fill="#EDEDED"/>
<path d="M2.4 12C2.4 11.3373 1.86274 10.8 1.2 10.8C0.537258 10.8 0 11.3373 0 12C0 12.6627 0.537258 13.2 1.2 13.2C1.86274 13.2 2.4 12.6627 2.4 12Z" fill="#EDEDED"/>
<path d="M7.8 12C7.8 11.3373 7.26274 10.8 6.6 10.8C5.93726 10.8 5.4 11.3373 5.4 12C5.4 12.6627 5.93726 13.2 6.6 13.2C7.26274 13.2 7.8 12.6627 7.8 12Z" fill="#EDEDED"/>
<path d="M13.2 12C13.2 11.3373 12.6627 10.8 12 10.8C11.3373 10.8 10.8 11.3373 10.8 12C10.8 12.6627 11.3373 13.2 12 13.2C12.6627 13.2 13.2 12.6627 13.2 12Z" fill="#EDEDED"/>
<path d="M2.4 6.6C2.4 5.93726 1.86274 5.4 1.2 5.4C0.537258 5.4 0 5.93726 0 6.6C0 7.26274 0.537258 7.8 1.2 7.8C1.86274 7.8 2.4 7.26274 2.4 6.6Z" fill="#EDEDED"/>
<path d="M7.8 6.6C7.8 5.93726 7.26274 5.4 6.6 5.4C5.93726 5.4 5.4 5.93726 5.4 6.6C5.4 7.26274 5.93726 7.8 6.6 7.8C7.26274 7.8 7.8 7.26274 7.8 6.6Z" fill="#EDEDED"/>
<path d="M13.2 6.6C13.2 5.93726 12.6627 5.4 12 5.4C11.3373 5.4 10.8 5.93726 10.8 6.6C10.8 7.26274 11.3373 7.8 12 7.8C12.6627 7.8 13.2 7.26274 13.2 6.6Z" fill="#EDEDED"/>
<path d="M18.6 6.6C18.6 5.93726 18.0627 5.4 17.4 5.4C16.7373 5.4 16.2 5.93726 16.2 6.6C16.2 7.26274 16.7373 7.8 17.4 7.8C18.0627 7.8 18.6 7.26274 18.6 6.6Z" fill="#EDEDED"/>
<path d="M2.4 1.2C2.4 0.537258 1.86274 0 1.2 0C0.537258 0 0 0.537258 0 1.2C0 1.86274 0.537258 2.4 1.2 2.4C1.86274 2.4 2.4 1.86274 2.4 1.2Z" fill="#EDEDED"/>
<path d="M7.8 1.2C7.8 0.537258 7.26274 0 6.6 0C5.93726 0 5.4 0.537258 5.4 1.2C5.4 1.86274 5.93726 2.4 6.6 2.4C7.26274 2.4 7.8 1.86274 7.8 1.2Z" fill="#EDEDED"/>
<path d="M13.2 1.2C13.2 0.537258 12.6627 0 12 0C11.3373 0 10.8 0.537258 10.8 1.2C10.8 1.86274 11.3373 2.4 12 2.4C12.6627 2.4 13.2 1.86274 13.2 1.2Z" fill="#EDEDED"/>
<path d="M18.6 1.2C18.6 0.537258 18.0627 0 17.4 0C16.7373 0 16.2 0.537258 16.2 1.2C16.2 1.86274 16.7373 2.4 17.4 2.4C18.0627 2.4 18.6 1.86274 18.6 1.2Z" fill="#EDEDED"/>
<path d="M24 1.2C24 0.537258 23.4627 0 22.8 0C22.1373 0 21.6 0.537258 21.6 1.2C21.6 1.86274 22.1373 2.4 22.8 2.4C23.4627 2.4 24 1.86274 24 1.2Z" fill="#EDEDED"/>
</svg>
