<svg width="40" height="40" viewBox="0 0 40 40" fill="none" xmlns="http://www.w3.org/2000/svg">
<path d="M4 2C4 3.10457 3.10457 4 2 4C0.89543 4 0 3.10457 0 2C0 0.89543 0.89543 0 2 0C3.10457 0 4 0.89543 4 2Z" fill="#E5A80B"/>
<path d="M4 11C4 12.1046 3.10457 13 2 13C0.89543 13 0 12.1046 0 11C0 9.89543 0.89543 9 2 9C3.10457 9 4 9.89543 4 11Z" fill="#E5A80B"/>
<path d="M13 11C13 12.1046 12.1046 13 11 13C9.89543 13 9 12.1046 9 11C9 9.89543 9.89543 9 11 9C12.1046 9 13 9.89543 13 11Z" fill="#E5A80B"/>
<path d="M4 20C4 21.1046 3.10457 22 2 22C0.89543 22 0 21.1046 0 20C0 18.8954 0.89543 18 2 18C3.10457 18 4 18.8954 4 20Z" fill="#E5A80B"/>
<path d="M13 20C13 21.1046 12.1046 22 11 22C9.89543 22 9 21.1046 9 20C9 18.8954 9.89543 18 11 18C12.1046 18 13 18.8954 13 20Z" fill="#E5A80B"/>
<path d="M22 20C22 21.1046 21.1046 22 20 22C18.8954 22 18 21.1046 18 20C18 18.8954 18.8954 18 20 18C21.1046 18 22 18.8954 22 20Z" fill="#E5A80B"/>
<path d="M4 29C4 30.1046 3.10457 31 2 31C0.89543 31 0 30.1046 0 29C0 27.8954 0.89543 27 2 27C3.10457 27 4 27.8954 4 29Z" fill="#E5A80B"/>
<path d="M13 29C13 30.1046 12.1046 31 11 31C9.89543 31 9 30.1046 9 29C9 27.8954 9.89543 27 11 27C12.1046 27 13 27.8954 13 29Z" fill="#E5A80B"/>
<path d="M22 29C22 30.1046 21.1046 31 20 31C18.8954 31 18 30.1046 18 29C18 27.8954 18.8954 27 20 27C21.1046 27 22 27.8954 22 29Z" fill="#E5A80B"/>
<path d="M31 29C31 30.1046 30.1046 31 29 31C27.8954 31 27 30.1046 27 29C27 27.8954 27.8954 27 29 27C30.1046 27 31 27.8954 31 29Z" fill="#E5A80B"/>
<path d="M4 38C4 39.1046 3.10457 40 2 40C0.89543 40 0 39.1046 0 38C0 36.8954 0.89543 36 2 36C3.10457 36 4 36.8954 4 38Z" fill="#E5A80B"/>
<path d="M13 38C13 39.1046 12.1046 40 11 40C9.89543 40 9 39.1046 9 38C9 36.8954 9.89543 36 11 36C12.1046 36 13 36.8954 13 38Z" fill="#E5A80B"/>
<path d="M22 38C22 39.1046 21.1046 40 20 40C18.8954 40 18 39.1046 18 38C18 36.8954 18.8954 36 20 36C21.1046 36 22 36.8954 22 38Z" fill="#E5A80B"/>
<path d="M31 38C31 39.1046 30.1046 40 29 40C27.8954 40 27 39.1046 27 38C27 36.8954 27.8954 36 29 36C30.1046 36 31 36.8954 31 38Z" fill="#E5A80B"/>
<path d="M40 38C40 39.1046 39.1046 40 38 40C36.8954 40 36 39.1046 36 38C36 36.8954 36.8954 36 38 36C39.1046 36 40 36.8954 40 38Z" fill="#E5A80B"/>
</svg>
