<svg width="24" height="24" viewBox="0 0 24 24" fill="none" xmlns="http://www.w3.org/2000/svg">
<path d="M2.4 1.2C2.4 1.86274 1.86274 2.4 1.2 2.4C0.537258 2.4 0 1.86274 0 1.2C0 0.537258 0.537258 0 1.2 0C1.86274 0 2.4 0.537258 2.4 1.2Z" fill="#EDEDED"/>
<path d="M2.4 6.6C2.4 7.26274 1.86274 7.8 1.2 7.8C0.537258 7.8 0 7.26274 0 6.6C0 5.93726 0.537258 5.4 1.2 5.4C1.86274 5.4 2.4 5.93726 2.4 6.6Z" fill="#EDEDED"/>
<path d="M7.8 6.6C7.8 7.26274 7.26274 7.8 6.6 7.8C5.93726 7.8 5.4 7.26274 5.4 6.6C5.4 5.93726 5.93726 5.4 6.6 5.4C7.26274 5.4 7.8 5.93726 7.8 6.6Z" fill="#EDEDED"/>
<path d="M2.4 12C2.4 12.6627 1.86274 13.2 1.2 13.2C0.537258 13.2 0 12.6627 0 12C0 11.3373 0.537258 10.8 1.2 10.8C1.86274 10.8 2.4 11.3373 2.4 12Z" fill="#EDEDED"/>
<path d="M7.8 12C7.8 12.6627 7.26274 13.2 6.6 13.2C5.93726 13.2 5.4 12.6627 5.4 12C5.4 11.3373 5.93726 10.8 6.6 10.8C7.26274 10.8 7.8 11.3373 7.8 12Z" fill="#EDEDED"/>
<path d="M13.2 12C13.2 12.6627 12.6627 13.2 12 13.2C11.3373 13.2 10.8 12.6627 10.8 12C10.8 11.3373 11.3373 10.8 12 10.8C12.6627 10.8 13.2 11.3373 13.2 12Z" fill="#EDEDED"/>
<path d="M2.4 17.4C2.4 18.0627 1.86274 18.6 1.2 18.6C0.537258 18.6 0 18.0627 0 17.4C0 16.7373 0.537258 16.2 1.2 16.2C1.86274 16.2 2.4 16.7373 2.4 17.4Z" fill="#EDEDED"/>
<path d="M7.8 17.4C7.8 18.0627 7.26274 18.6 6.6 18.6C5.93726 18.6 5.4 18.0627 5.4 17.4C5.4 16.7373 5.93726 16.2 6.6 16.2C7.26274 16.2 7.8 16.7373 7.8 17.4Z" fill="#EDEDED"/>
<path d="M13.2 17.4C13.2 18.0627 12.6627 18.6 12 18.6C11.3373 18.6 10.8 18.0627 10.8 17.4C10.8 16.7373 11.3373 16.2 12 16.2C12.6627 16.2 13.2 16.7373 13.2 17.4Z" fill="#EDEDED"/>
<path d="M18.6 17.4C18.6 18.0627 18.0627 18.6 17.4 18.6C16.7373 18.6 16.2 18.0627 16.2 17.4C16.2 16.7373 16.7373 16.2 17.4 16.2C18.0627 16.2 18.6 16.7373 18.6 17.4Z" fill="#EDEDED"/>
<path d="M2.4 22.8C2.4 23.4627 1.86274 24 1.2 24C0.537258 24 0 23.4627 0 22.8C0 22.1373 0.537258 21.6 1.2 21.6C1.86274 21.6 2.4 22.1373 2.4 22.8Z" fill="#EDEDED"/>
<path d="M7.8 22.8C7.8 23.4627 7.26274 24 6.6 24C5.93726 24 5.4 23.4627 5.4 22.8C5.4 22.1373 5.93726 21.6 6.6 21.6C7.26274 21.6 7.8 22.1373 7.8 22.8Z" fill="#EDEDED"/>
<path d="M13.2 22.8C13.2 23.4627 12.6627 24 12 24C11.3373 24 10.8 23.4627 10.8 22.8C10.8 22.1373 11.3373 21.6 12 21.6C12.6627 21.6 13.2 22.1373 13.2 22.8Z" fill="#EDEDED"/>
<path d="M18.6 22.8C18.6 23.4627 18.0627 24 17.4 24C16.7373 24 16.2 23.4627 16.2 22.8C16.2 22.1373 16.7373 21.6 17.4 21.6C18.0627 21.6 18.6 22.1373 18.6 22.8Z" fill="#EDEDED"/>
<path d="M24 22.8C24 23.4627 23.4627 24 22.8 24C22.1373 24 21.6 23.4627 21.6 22.8C21.6 22.1373 22.1373 21.6 22.8 21.6C23.4627 21.6 24 22.1373 24 22.8Z" fill="#EDEDED"/>
</svg>
