<svg width="40" height="40" viewBox="0 0 40 40" fill="none" xmlns="http://www.w3.org/2000/svg">
<path d="M36 2C36 3.10457 36.8954 4 38 4C39.1046 4 40 3.10457 40 2C40 0.89543 39.1046 0 38 0C36.8954 0 36 0.89543 36 2Z" fill="#E5A80B"/>
<path d="M36 11C36 12.1046 36.8954 13 38 13C39.1046 13 40 12.1046 40 11C40 9.89543 39.1046 9 38 9C36.8954 9 36 9.89543 36 11Z" fill="#E5A80B"/>
<path d="M27 11C27 12.1046 27.8954 13 29 13C30.1046 13 31 12.1046 31 11C31 9.89543 30.1046 9 29 9C27.8954 9 27 9.89543 27 11Z" fill="#E5A80B"/>
<path d="M36 20C36 21.1046 36.8954 22 38 22C39.1046 22 40 21.1046 40 20C40 18.8954 39.1046 18 38 18C36.8954 18 36 18.8954 36 20Z" fill="#E5A80B"/>
<path d="M27 20C27 21.1046 27.8954 22 29 22C30.1046 22 31 21.1046 31 20C31 18.8954 30.1046 18 29 18C27.8954 18 27 18.8954 27 20Z" fill="#E5A80B"/>
<path d="M18 20C18 21.1046 18.8954 22 20 22C21.1046 22 22 21.1046 22 20C22 18.8954 21.1046 18 20 18C18.8954 18 18 18.8954 18 20Z" fill="#E5A80B"/>
<path d="M36 29C36 30.1046 36.8954 31 38 31C39.1046 31 40 30.1046 40 29C40 27.8954 39.1046 27 38 27C36.8954 27 36 27.8954 36 29Z" fill="#E5A80B"/>
<path d="M27 29C27 30.1046 27.8954 31 29 31C30.1046 31 31 30.1046 31 29C31 27.8954 30.1046 27 29 27C27.8954 27 27 27.8954 27 29Z" fill="#E5A80B"/>
<path d="M18 29C18 30.1046 18.8954 31 20 31C21.1046 31 22 30.1046 22 29C22 27.8954 21.1046 27 20 27C18.8954 27 18 27.8954 18 29Z" fill="#E5A80B"/>
<path d="M9 29C9 30.1046 9.89543 31 11 31C12.1046 31 13 30.1046 13 29C13 27.8954 12.1046 27 11 27C9.89543 27 9 27.8954 9 29Z" fill="#E5A80B"/>
<path d="M36 38C36 39.1046 36.8954 40 38 40C39.1046 40 40 39.1046 40 38C40 36.8954 39.1046 36 38 36C36.8954 36 36 36.8954 36 38Z" fill="#E5A80B"/>
<path d="M27 38C27 39.1046 27.8954 40 29 40C30.1046 40 31 39.1046 31 38C31 36.8954 30.1046 36 29 36C27.8954 36 27 36.8954 27 38Z" fill="#E5A80B"/>
<path d="M18 38C18 39.1046 18.8954 40 20 40C21.1046 40 22 39.1046 22 38C22 36.8954 21.1046 36 20 36C18.8954 36 18 36.8954 18 38Z" fill="#E5A80B"/>
<path d="M9 38C9 39.1046 9.89543 40 11 40C12.1046 40 13 39.1046 13 38C13 36.8954 12.1046 36 11 36C9.89543 36 9 36.8954 9 38Z" fill="#E5A80B"/>
<path d="M0 38C0 39.1046 0.895432 40 2 40C3.10457 40 4 39.1046 4 38C4 36.8954 3.10457 36 2 36C0.895432 36 0 36.8954 0 38Z" fill="#E5A80B"/>
</svg>
