<svg width="180" height="40" viewBox="0 0 180 40" fill="none" xmlns="http://www.w3.org/2000/svg">
<g clip-path="url(#clip0_2_34)">
<path fill-rule="evenodd" clip-rule="evenodd" d="M140.605 18.7368C140.605 18.7368 167.626 15.2745 171.076 30.7368C175.339 31.448 180 32.2105 180 32.2105L167.811 32.421C167.811 32.421 168.918 21.2156 140.605 18.7368ZM30.4716 34.1052L31.7775 30.9474L0 33.0526L30.4716 34.1052ZM105.127 3.36841L132.116 13.2631H74.2201V12.421H125.804L105.127 3.36841Z" fill="#F6BA00"/>
<path fill-rule="evenodd" clip-rule="evenodd" d="M178.694 18.1053C178.694 18.1053 171.357 11.1579 138.646 11.1579C135.173 9.33326 119.991 0 97.9443 0C83.9873 0 71.5287 3.81832 62.3579 7.77242C52.509 12.0183 45.0739 16.4211 32.8657 16.4211C17.2867 16.4211 11.7533 6.31579 11.7533 6.31579H4.57068C4.57068 6.31579 13.7557 17.2632 32.6481 17.2632C45.373 17.2632 52.2615 13.1735 63.1414 9.21347C73.3505 5.49684 84.583 1.89474 97.9443 1.89474C120.827 1.89474 136.251 13.2632 136.251 13.2632C169.074 13.2632 178.694 18.1053 178.694 18.1053Z" fill="#111111"/>
<path fill-rule="evenodd" clip-rule="evenodd" d="M43.9048 29.8653H47.1004V20.5486L49.5599 29.8653H52.4532L54.9159 20.5486V29.8653H58.1124V17.6486H52.9823L51.0182 25.0819L49.0375 17.6486H43.9048V29.8653ZM68.4692 29.8653H72.5561L67.8102 17.6486H63.5531L58.8058 29.8653H62.7909L63.4064 27.8486H67.8374L68.4692 29.8653ZM64.2541 25.207L65.6336 20.8154L67.0266 25.207H64.2541ZM71.1653 20.6653H75.1458V29.8653H79.0485V20.6653H83.0288V17.6486H71.1653V20.6653ZM84.2829 29.8653H88.1859V24.9236H92.4504V29.8653H96.3705V17.6486H92.4504V21.9236H88.1859V17.6486H84.2829V29.8653ZM98.4258 29.8653H109.075V27.0985H102.337V24.6903H108.411V22.1985H102.337V20.2571H108.885V17.6486H98.4258V29.8653ZM118.867 25.1004C118.867 25.7778 118.676 26.3009 118.294 26.6699C117.848 27.029 117.287 27.2251 116.707 27.2236C116.127 27.2221 115.566 27.0231 115.123 26.6617C114.925 26.4517 114.772 26.2054 114.673 25.9372C114.575 25.6691 114.533 25.3845 114.55 25.1004V17.6478H110.655V24.9263C110.673 25.628 110.795 26.3236 111.017 26.9916C111.188 27.5122 111.472 27.9919 111.849 28.399C112.222 28.829 112.677 29.1862 113.188 29.4516C113.76 29.7218 114.377 29.8897 115.01 29.9472C115.678 30.0268 116.35 30.0685 117.022 30.072C117.95 30.0928 118.875 29.9546 119.753 29.6638C120.344 29.4406 120.878 29.0954 121.317 28.6522C121.809 28.1792 122.183 27.6038 122.411 26.9699C122.646 26.3125 122.764 25.6211 122.759 24.9255V17.6486H118.867V25.1013V25.1004ZM125.54 28.8737C126.367 29.6737 127.854 30.0737 130.002 30.0737C131.225 30.0737 132.239 29.9028 133.043 29.5611C133.809 29.2501 134.462 28.7268 134.921 28.0571C135.363 27.4156 135.597 26.6611 135.593 25.8903C135.602 25.254 135.427 24.6279 135.089 24.0819C134.695 23.493 134.136 23.0236 133.479 22.7278C132.74 22.364 131.518 22.0043 129.813 21.6486C129.123 21.5098 128.687 21.3598 128.503 21.1985C128.418 21.1374 128.348 21.0584 128.299 20.9675C128.25 20.8766 128.223 20.7762 128.22 20.6737C128.22 20.5425 128.251 20.4131 128.311 20.2953C128.37 20.1775 128.457 20.0746 128.565 19.9945C128.862 19.7884 129.225 19.6896 129.59 19.7154C129.824 19.6896 130.061 19.7105 130.286 19.7769C130.511 19.8433 130.72 19.9538 130.9 20.1014C131.079 20.2491 131.225 20.4308 131.329 20.6353C131.432 20.8398 131.492 21.0628 131.503 21.2903L135.181 21.0819C135.02 19.8152 134.516 18.8917 133.669 18.3112C132.822 17.7307 131.591 17.4404 129.977 17.4404C128.662 17.4404 127.627 17.6001 126.871 17.9196C126.183 18.1862 125.592 18.6444 125.174 19.2362C124.808 19.7622 124.611 20.3814 124.609 21.0154C124.598 21.4633 124.692 21.9078 124.883 22.316C125.073 22.7242 125.357 23.0856 125.712 23.3733C126.441 23.9898 127.662 24.4843 129.374 24.8566C130.418 25.0788 131.085 25.3149 131.372 25.5649C131.504 25.6676 131.611 25.7969 131.685 25.9437C131.76 26.0906 131.8 26.2514 131.803 26.415C131.801 26.5849 131.759 26.7521 131.68 26.9042C131.602 27.0564 131.49 27.1896 131.351 27.2941C130.984 27.5676 130.526 27.7023 130.063 27.6731C129.735 27.6908 129.408 27.6328 129.109 27.5038C128.809 27.3748 128.545 27.1786 128.34 26.9314C128.058 26.5362 127.889 26.0763 127.849 25.5979L124.135 25.823C124.205 26.9712 124.704 28.0556 125.54 28.8737Z" fill="#111111"/>
<path fill-rule="evenodd" clip-rule="evenodd" d="M79.139 39.7931H82.7086C83.1929 39.7852 83.6742 39.7163 84.1401 39.588C84.5459 39.4777 84.9174 39.2725 85.2218 38.9905C85.5657 38.6801 85.8346 38.3 86.0093 37.8775C86.2241 37.2771 86.3201 36.643 86.2922 36.0082C86.2951 35.5167 86.2309 35.0269 86.1014 34.5516C85.9841 34.1132 85.7747 33.7029 85.4863 33.3463C85.2017 32.9997 84.8328 32.7266 84.4126 32.5514C83.87 32.3476 83.2902 32.2531 82.7086 32.2737H79.139V39.7922V39.7931ZM82.1401 33.9773C82.7621 33.9773 83.2075 34.1243 83.4762 34.4183C83.745 34.7124 83.8793 35.2577 83.8793 36.0543C83.9041 36.4965 83.8429 36.9392 83.6989 37.3596C83.6057 37.5981 83.4295 37.7976 83.2005 37.9238C82.8601 38.0534 82.4944 38.1086 82.1294 38.0853H81.5417V33.9773H82.1409H82.1401ZM86.7352 39.7931H93.2887V38.0903H89.1424V36.6082H92.8804V35.0748H89.1418V33.8798H93.1714V32.2737H86.7352V39.7922V39.7931ZM94.2135 39.1825C94.7227 39.6749 95.6382 39.9211 96.9601 39.9211C97.5998 39.941 98.237 39.8335 98.8319 39.6053C99.3034 39.4138 99.7055 39.0914 99.9877 38.679C100.26 38.2842 100.404 37.8199 100.401 37.3455C100.407 36.9539 100.299 36.5686 100.091 36.2326C99.8482 35.87 99.5045 35.5811 99.0994 35.3992C98.3766 35.0938 97.6192 34.8715 96.8428 34.7369C96.5566 34.7027 96.2817 34.6082 96.0375 34.46C95.9852 34.4223 95.9423 34.3737 95.9122 34.3177C95.882 34.2618 95.8654 34.1999 95.8634 34.1369C95.8632 34.0561 95.8823 33.9764 95.9191 33.9039C95.9559 33.8314 96.0094 33.768 96.0756 33.7188C96.2587 33.5918 96.4821 33.531 96.7068 33.547C96.8507 33.531 96.9965 33.5438 97.1351 33.5846C97.2737 33.6254 97.4022 33.6933 97.5126 33.7841C97.6229 33.8749 97.7128 33.9867 97.7767 34.1125C97.8406 34.2383 97.877 34.3754 97.8838 34.5154L100.147 34.387C100.048 33.6076 99.7382 33.0392 99.217 32.6817C98.6958 32.3242 97.9378 32.1461 96.9431 32.1474C96.292 32.1212 95.6421 32.2214 95.0317 32.4421C94.6082 32.6062 94.2445 32.8882 93.987 33.2524C93.7614 33.576 93.6402 33.957 93.6387 34.3472C93.6319 34.6229 93.6893 34.8965 93.8068 35.1478C93.9243 35.399 94.0988 35.6215 94.3174 35.7985C94.7662 36.1775 95.5174 36.4818 96.571 36.7114C97.2142 36.8482 97.6243 36.9936 97.8011 37.1474C97.8821 37.2107 97.9477 37.2903 97.9935 37.3806C98.0393 37.471 98.0641 37.5699 98.0662 37.6705C98.0646 37.7751 98.0387 37.878 97.9906 37.9716C97.9424 38.0653 97.8731 38.1473 97.7879 38.2116C97.5617 38.3798 97.2799 38.4628 96.9952 38.4449C96.7936 38.4558 96.5922 38.4201 96.4078 38.3407C96.2233 38.2614 96.0611 38.1406 95.9345 37.9884C95.7612 37.7451 95.657 37.462 95.6324 37.1674L93.3471 37.3059C93.3902 38.0125 93.698 38.6798 94.2129 39.1828L94.2135 39.1825ZM100.785 39.7931H103.198V37.0032H104.513C105.481 37.0032 106.202 36.7895 106.674 36.3621C107.146 35.9348 107.382 35.3415 107.381 34.5823C107.381 33.8438 107.165 33.2745 106.732 32.8745C106.299 32.4745 105.648 32.2745 104.778 32.2745H100.785V39.7931H100.785ZM103.198 33.8028H103.882C104.331 33.8028 104.636 33.8849 104.799 34.0491C104.879 34.1284 104.942 34.2224 104.983 34.3254C105.025 34.4284 105.045 34.5384 105.043 34.6491C105.046 34.7627 105.022 34.8755 104.973 34.979C104.925 35.0825 104.852 35.174 104.762 35.2465C104.575 35.4021 104.249 35.4798 103.786 35.4798H103.199V33.8028H103.198ZM112.069 39.7931H114.584L111.662 32.2737H109.043L106.121 39.7922H108.573L108.952 38.5512H111.678L112.069 39.7931ZM109.474 36.9263L110.323 34.2236L111.181 36.9263H109.474H109.474ZM119 37.8034C118.7 38.0594 118.309 38.193 117.909 38.1764C117.509 38.1597 117.131 37.9941 116.855 37.7141C116.594 37.4053 116.463 36.8342 116.463 36.0006C116.463 35.3279 116.573 34.8345 116.792 34.5202C116.997 34.2325 117.301 34.0248 117.65 33.9347C117.999 33.8446 118.37 33.8779 118.696 34.0286C118.891 34.1256 119.06 34.2663 119.189 34.439C119.293 34.5936 119.372 34.7632 119.422 34.9415L121.543 34.4851C121.335 33.7817 120.897 33.1625 120.294 32.7209C119.734 32.338 118.964 32.1465 117.985 32.1465C116.734 32.1465 115.766 32.4805 115.082 33.1484C114.398 33.8164 114.056 34.7722 114.056 36.016C114.022 36.8194 114.224 37.6157 114.639 38.3122C114.964 38.8529 115.446 39.2889 116.026 39.5653C116.682 39.8248 117.388 39.9462 118.096 39.9215C118.685 39.9407 119.271 39.8412 119.817 39.6293C120.264 39.4373 120.653 39.1391 120.949 38.7625C121.273 38.3362 121.501 37.8483 121.617 37.331L119.512 36.7156C119.442 37.1152 119.266 37.4902 119 37.8032V37.8034ZM121.979 39.7933H124.381V36.7518H127.006V39.7931H129.418V32.2737H127.006V34.9053H124.381V32.2737H121.979V39.7922V39.7933ZM135.368 39.7933H137.884L134.962 32.2737H132.342L129.42 39.7922H131.873L132.252 38.5512H134.979L135.368 39.7933ZM132.774 36.9263L133.622 34.2236L134.48 36.9263H132.774ZM137.848 39.7933H140.107V35.6649L143.018 39.7931H145.281V32.2737H143.018V36.4333L140.091 32.2737H137.849V39.7922L137.848 39.7933ZM145.517 34.1312H147.967V39.7933H150.369V34.131H152.819V32.2737H145.517V34.1301V34.1312ZM153.086 39.7933H159.64V38.0905H155.493V36.6084H159.231V35.075H155.493V33.88H159.523V32.2737H153.086V39.7922V39.7933Z" fill="#111111"/>
</g>
<defs>
<clipPath id="clip0_2_34">
<rect width="180" height="40" fill="white"/>
</clipPath>
</defs>
</svg>
